<?xml version="1.0" standalone="no"?>
<!DOCTYPE svg PUBLIC "-//W3C//DTD SVG 20010904//EN"
 "http://www.w3.org/TR/2001/REC-SVG-20010904/DTD/svg10.dtd">
<svg version="1.0" xmlns="http://www.w3.org/2000/svg"
 width="612.000000pt" height="378.000000pt" viewBox="0 0 612.000000 378.000000"
 preserveAspectRatio="xMidYMid meet">

<g transform="translate(0.000000,378.000000) scale(0.100000,-0.100000)"
fill="#000000" stroke="none">
<path d="M95 2595 c0 -638 1 -900 2 -583 2 317 2 839 0 1160 -1 321 -2 61 -2
-577z"/>
<path d="M1235 3000 c0 -410 1 -577 2 -372 2 204 2 540 0 745 -1 204 -2 37 -2
-373z"/>
<path d="M2985 2900 c0 -443 1 -624 2 -403 2 222 2 584 0 805 -1 222 -2 41 -2
-402z"/>
<path d="M3975 3205 c0 -275 1 -386 2 -247 2 139 2 364 0 500 -1 136 -2 22 -2
-253z"/>
<path d="M4800 2958 c0 -402 2 -729 4 -727 9 10 15 1459 6 1459 -6 0 -10 -271
-10 -732z"/>
<path d="M475 2645 c0 -550 1 -776 2 -503 2 273 2 723 0 1000 -1 277 -2 53 -2
-497z"/>
<path d="M1615 2815 c0 -440 1 -619 2 -397 2 222 2 582 0 800 -1 218 -2 37 -2
-403z"/>
<path d="M4655 2455 c0 -638 1 -900 2 -583 2 317 2 839 0 1160 -1 321 -2 61
-2 -577z"/>
<path d="M5562 3253 c2 -340 2 -348 8 -153 11 328 11 510 0 510 -7 0 -9 -125
-8 -357z"/>
<path d="M6025 2495 c0 -616 1 -867 2 -557 2 310 2 814 0 1120 -1 306 -2 53
-2 -563z"/>
<path d="M2671 3238 c1 -205 5 -323 9 -293 12 76 12 635 0 635 -6 0 -10 -120
-9 -342z"/>
<path d="M3365 2680 c0 -498 1 -701 2 -453 2 249 2 657 0 905 -1 249 -2 46 -2
-452z"/>
<path d="M3811 3278 c1 -145 5 -321 8 -393 6 -96 8 -27 9 263 1 256 -1 392 -8
392 -6 0 -10 -93 -9 -262z"/>
<path d="M5115 2705 c0 -462 1 -650 2 -417 2 233 2 611 0 840 -1 229 -2 39 -2
-423z"/>
<path d="M245 2810 c0 -393 1 -554 2 -357 2 196 2 518 0 715 -1 196 -2 35 -2
-358z"/>
<path d="M927 2988 c3 -293 7 -535 9 -537 2 -2 4 237 4 532 0 331 -4 537 -9
537 -6 0 -8 -201 -4 -532z"/>
<path d="M4191 3258 c1 -145 5 -369 8 -498 6 -202 8 -166 9 263 1 326 -1 497
-8 497 -6 0 -10 -93 -9 -262z"/>
<path d="M3662 2883 c1 -346 3 -608 5 -583 7 102 7 1210 1 1210 -5 0 -7 -282
-6 -627z"/>
<path d="M4422 2925 l1 -590 8 580 c4 348 4 584 -2 590 -5 5 -8 -224 -7 -580z"/>
<path d="M1465 2795 c0 -385 1 -541 2 -347 2 195 2 510 0 700 -1 191 -2 32 -2
-353z"/>
<path d="M2068 3148 c1 -189 4 -359 6 -378 1 -19 3 135 4 343 1 207 -1 377 -5
377 -5 0 -7 -154 -5 -342z"/>
<path d="M2828 2963 c1 -291 4 -559 5 -598 2 -38 4 199 5 528 1 328 -1 597 -5
597 -5 0 -7 -237 -5 -527z"/>
<path d="M5790 2895 c0 -329 2 -596 5 -593 6 6 7 1179 0 1186 -3 3 -5 -264 -5
-593z"/>
<path d="M1765 2785 c0 -368 1 -518 2 -332 2 186 2 488 0 670 -1 183 -2 31 -2
-338z"/>
<path d="M2375 2855 c0 -330 1 -464 2 -297 2 167 2 437 0 600 -1 163 -2 27 -2
-303z"/>
<path d="M4885 2455 c0 -550 1 -776 2 -503 2 273 2 723 0 1000 -1 277 -2 53
-2 -497z"/>
<path d="M3135 2450 c0 -547 1 -771 2 -497 2 273 2 721 0 995 -1 273 -2 49 -2
-498z"/>
<path d="M5337 2753 c3 -357 7 -650 9 -652 2 -2 4 289 4 647 0 410 -4 652 -10
652 -6 0 -7 -236 -3 -647z"/>
<path d="M161 3273 c1 -54 5 -143 9 -198 6 -89 7 -77 8 98 1 126 -2 197 -8
197 -6 0 -10 -38 -9 -97z"/>
<path d="M2292 2933 c1 -357 3 -404 9 -253 11 297 10 690 -1 690 -7 0 -9 -151
-8 -437z"/>
<path d="M5942 2813 c2 -505 2 -530 9 -268 10 471 10 825 -1 825 -7 0 -9 -191
-8 -557z"/>
<path d="M705 2545 c0 -440 1 -619 2 -397 2 222 2 582 0 800 -1 218 -2 37 -2
-403z"/>
<path d="M5717 2848 c3 -271 6 -497 8 -503 2 -5 4 216 4 493 1 280 -3 502 -8
502 -5 0 -7 -215 -4 -492z"/>
<path d="M2905 2945 c0 -203 1 -285 2 -182 2 104 2 270 0 370 -1 100 -2 16 -2
-188z"/>
<path d="M4355 2560 c0 -415 1 -585 2 -378 2 208 2 548 0 755 -1 208 -2 38 -2
-377z"/>
<path d="M5035 2850 c0 -256 1 -360 2 -233 2 128 2 338 0 465 -1 128 -2 24 -2
-232z"/>
<path d="M2605 2405 c0 -495 1 -696 2 -447 2 250 2 655 0 900 -1 246 -2 42 -2
-453z"/>
<path d="M5495 2640 c0 -366 1 -515 2 -332 2 182 2 482 0 665 -1 182 -2 33 -2
-333z"/>
<path d="M3515 2410 c0 -481 1 -678 2 -438 2 241 2 635 0 875 -1 241 -2 44 -2
-437z"/>
<path d="M1995 2435 c0 -451 1 -634 2 -407 2 228 2 597 0 820 -1 224 -2 38 -2
-413z"/>
<path d="M541 3058 c1 -84 5 -254 8 -378 7 -220 7 -216 9 153 1 246 -1 377 -8
377 -6 0 -10 -57 -9 -152z"/>
<path d="M1085 2655 c0 -308 1 -435 2 -283 2 152 2 404 0 560 -1 156 -2 31 -2
-277z"/>
<path d="M4954 3187 c-2 -7 -1 -238 4 -512 l9 -500 1 513 c1 281 0 512 -3 512
-3 0 -8 -6 -11 -13z"/>
<path d="M4576 2838 c4 -194 8 -355 10 -357 2 -2 4 156 4 352 0 246 -3 357
-11 357 -7 0 -8 -105 -3 -352z"/>
<path d="M4042 2595 l2 -570 6 560 c4 308 3 564 -2 570 -4 5 -7 -247 -6 -560z"/>
<path d="M391 2748 c1 -216 3 -386 5 -378 7 37 10 770 3 770 -5 0 -8 -177 -8
-392z"/>
<path d="M3745 2180 c0 -531 1 -748 2 -483 2 266 2 700 0 965 -1 266 -2 49 -2
-482z"/>
<path d="M1307 2503 c2 -346 6 -632 8 -638 2 -5 4 277 4 628 1 371 -3 637 -8
637 -5 0 -7 -259 -4 -627z"/>
<path d="M5415 2430 c0 -388 1 -546 2 -352 2 193 2 511 0 705 -1 193 -2 35 -2
-353z"/>
<path d="M2145 2410 c0 -393 1 -554 2 -357 2 196 2 518 0 715 -1 196 -2 35 -2
-358z"/>
<path d="M3052 2718 c0 -211 4 -363 8 -338 11 80 12 720 0 720 -7 0 -10 -122
-8 -382z"/>
<path d="M855 2260 c0 -443 1 -624 2 -403 2 222 2 584 0 805 -1 222 -2 41 -2
-402z"/>
<path d="M1687 2428 c2 -348 6 -637 8 -643 2 -5 4 279 4 633 1 380 -3 642 -8
642 -6 0 -7 -255 -4 -632z"/>
<path d="M4275 2080 c0 -542 1 -763 2 -492 2 270 2 714 0 985 -1 270 -2 49 -2
-493z"/>
<path d="M2449 3003 c-3 -32 3 -1409 7 -1412 2 -2 4 316 4 707 0 392 -2 712
-5 712 -3 0 -5 -3 -6 -7z"/>
<path d="M2755 2140 c0 -465 1 -655 2 -423 2 233 2 613 0 845 -1 233 -2 43 -2
-422z"/>
<path d="M1385 2340 c0 -338 1 -477 2 -307 2 169 2 445 0 615 -1 169 -2 30 -2
-308z"/>
<path d="M3595 2150 c0 -426 1 -601 2 -387 2 213 2 561 0 775 -1 213 -2 38 -2
-388z"/>
<path d="M4735 2290 c0 -349 1 -492 2 -317 2 174 2 460 0 635 -1 174 -2 31 -2
-318z"/>
<path d="M2225 2010 c0 -481 1 -678 2 -438 2 241 2 635 0 875 -1 241 -2 44 -2
-437z"/>
<path d="M4505 2095 c0 -396 1 -557 2 -357 2 200 2 524 0 720 -1 196 -2 33 -2
-363z"/>
<path d="M3895 1925 c0 -478 1 -676 2 -438 2 237 2 629 0 870 -1 241 -2 47 -2
-432z"/>
<path d="M5645 1925 c0 -478 1 -676 2 -438 2 237 2 629 0 870 -1 241 -2 47 -2
-432z"/>
<path d="M1152 2275 l1 -500 9 489 c7 344 6 492 -1 499 -8 8 -11 -135 -9 -488z"/>
<path d="M3283 2085 l2 -690 5 675 c3 371 2 682 -2 690 -4 8 -6 -295 -5 -675z"/>
<path d="M1912 2428 c1 -236 3 -276 8 -183 11 192 11 473 0 480 -7 4 -9 -97
-8 -297z"/>
<path d="M5180 2268 c0 -232 2 -419 4 -417 9 11 15 839 6 839 -6 0 -10 -150
-10 -422z"/>
<path d="M5265 2100 c0 -261 1 -368 2 -238 2 131 2 345 0 475 -1 131 -2 24 -2
-237z"/>
<path d="M3208 2183 c1 -175 3 -370 5 -433 1 -63 4 80 5 318 1 237 -1 432 -5
432 -5 0 -7 -143 -5 -317z"/>
<path d="M4125 1820 c0 -377 1 -531 2 -342 2 188 2 496 0 685 -1 188 -2 34 -2
-343z"/>
<path d="M5875 1740 c0 -421 1 -593 2 -383 2 211 2 555 0 765 -1 211 -2 39 -2
-382z"/>
<path d="M317 1758 c2 -387 6 -710 7 -718 2 -8 4 308 5 703 0 394 -3 717 -7
717 -5 0 -7 -316 -5 -702z"/>
<path d="M770 2018 c0 -243 2 -439 4 -437 9 10 15 879 6 879 -6 0 -10 -158
-10 -442z"/>
<path d="M1532 2163 c1 -244 2 -268 9 -158 11 203 10 445 -1 445 -6 0 -9 -101
-8 -287z"/>
<path d="M2525 1750 c0 -294 1 -415 2 -267 2 147 2 387 0 535 -1 147 -2 26 -2
-268z"/>
<path d="M3431 2038 c1 -128 4 -273 8 -323 6 -62 8 9 9 233 1 209 -2 322 -8
322 -6 0 -10 -83 -9 -232z"/>
<path d="M1005 1525 c0 -346 1 -487 2 -312 2 175 2 459 0 630 -1 172 -2 29 -2
-318z"/>
<path d="M1845 1440 c0 -371 1 -523 2 -338 2 186 2 490 0 675 -1 186 -2 34 -2
-337z"/>
<path d="M4043 1980 c0 -25 2 -35 4 -22 2 12 2 32 0 45 -2 12 -4 2 -4 -23z"/>
<path d="M1531 1844 c0 -11 3 -14 6 -6 3 7 2 16 -1 19 -3 4 -6 -2 -5 -13z"/>
<path d="M5112 1830 c0 -19 2 -27 5 -17 2 9 2 25 0 35 -3 9 -5 1 -5 -18z"/>
<path d="M625 1320 c0 -212 1 -298 2 -193 2 106 2 280 0 385 -1 106 -2 20 -2
-192z"/>
<path d="M1381 1684 c0 -11 3 -14 6 -6 3 7 2 16 -1 19 -3 4 -6 -2 -5 -13z"/>
<path d="M4732 1605 c0 -16 2 -22 5 -12 2 9 2 23 0 30 -3 6 -5 -1 -5 -18z"/>
<path d="M1991 1524 c0 -11 3 -14 6 -6 3 7 2 16 -1 19 -3 4 -6 -2 -5 -13z"/>
<path d="M4881 1424 c0 -11 3 -14 6 -6 3 7 2 16 -1 19 -3 4 -6 -2 -5 -13z"/>
<path d="M2751 1204 c0 -11 3 -14 6 -6 3 7 2 16 -1 19 -3 4 -6 -2 -5 -13z"/>
</g>
</svg>
